<?xml version="1.0" standalone="no"?>
<!DOCTYPE svg PUBLIC "-//W3C//DTD SVG 20010904//EN"
 "http://www.w3.org/TR/2001/REC-SVG-20010904/DTD/svg10.dtd">
<svg version="1.0" xmlns="http://www.w3.org/2000/svg"
 width="4650.000000pt" height="4650.000000pt" viewBox="0 0 4650.000000 4650.000000"
 preserveAspectRatio="xMidYMid meet">

<g transform="translate(0.000000,4650.000000) scale(0.100000,-0.100000)"
fill="#000000" stroke="none">
<path d="M13770 33100 c-689 -53 -1322 -253 -1900 -598 -1078 -643 -1837
-1780 -2065 -3093 -75 -432 -75 -886 1 -1297 122 -669 413 -1239 859 -1687
402 -403 891 -681 1435 -814 279 -68 525 -95 875 -95 564 -1 942 72 1480 284
365 145 730 354 1018 585 115 93 408 373 407 391 0 8 -594 519 -706 607 l-25
19 -72 -78 c-360 -399 -806 -681 -1270 -804 -213 -56 -338 -72 -622 -77 -288
-6 -451 7 -669 53 -414 88 -808 301 -1094 592 -636 648 -804 1707 -446 2805
326 998 1021 1756 1939 2112 409 158 913 218 1335 159 450 -63 886 -285 1149
-584 51 -57 139 -173 166 -218 5 -7 900 621 897 630 -6 22 -107 164 -176 245
-182 218 -412 400 -665 528 -321 161 -722 276 -1136 326 -120 14 -571 20 -715
9z"/>
<path d="M31905 33103 c-169 -13 -289 -28 -401 -49 -521 -95 -1061 -369 -1433
-729 -216 -208 -353 -395 -477 -650 -160 -330 -218 -600 -218 -1020 0 -245 13
-349 65 -512 38 -119 69 -188 134 -298 171 -291 427 -520 790 -707 168 -86
308 -143 525 -213 465 -149 843 -290 1015 -378 249 -127 451 -297 519 -437 84
-173 86 -438 5 -685 -98 -296 -365 -588 -707 -772 -267 -144 -542 -213 -852
-213 -261 0 -467 38 -690 127 -146 58 -185 78 -295 151 -160 105 -293 247
-395 420 -29 49 -46 70 -54 63 -6 -4 -202 -156 -436 -336 -234 -180 -432 -334
-439 -341 -13 -12 -4 -29 62 -128 194 -287 477 -512 814 -647 269 -108 545
-177 863 -215 197 -24 610 -24 800 -1 1008 127 1790 640 2195 1442 193 380
287 805 272 1219 -10 257 -57 438 -162 615 -171 289 -392 485 -754 666 -216
108 -345 156 -667 250 -757 221 -1103 387 -1350 647 -133 141 -181 263 -191
483 -12 266 46 477 193 703 69 107 249 289 352 357 245 160 510 242 856 266
411 28 721 -43 997 -226 147 -98 253 -211 355 -381 9 -16 30 -3 190 126 98 80
298 241 444 359 146 117 266 217 268 221 5 13 -90 131 -183 228 -351 367 -784
543 -1457 591 -134 10 -455 12 -553 4z"/>
<path d="M8406 32908 c-16 -26 -1206 -2484 -1206 -2493 0 -3 221 -4 491 -3
l491 3 529 1240 c291 682 532 1248 535 1258 5 16 -19 17 -410 17 l-416 0 -14
-22z"/>
<path d="M18109 29324 c-1152 -1984 -2095 -3610 -2097 -3615 -2 -5 245 -9 570
-9 l573 0 476 888 476 887 1720 3 1720 2 30 -107 c16 -60 123 -460 239 -890
l209 -783 573 0 c314 0 572 2 572 5 0 4 -2005 6968 -2061 7158 l-20 67 -443 0
-444 0 -2093 -3606z m2765 673 c240 -906 436 -1649 436 -1652 0 -3 -612 -5
-1360 -5 -751 0 -1360 4 -1360 9 0 7 1723 3126 1807 3269 14 24 29 40 33 35 5
-4 205 -749 444 -1656z"/>
<path d="M23366 32922 c-5 -8 -126 -845 -129 -892 l-2 -25 1161 -5 1160 -5
-431 -3100 c-237 -1705 -435 -3121 -438 -3147 l-7 -48 493 0 492 0 434 3123
c238 1717 436 3134 438 3150 l6 27 1158 0 c693 0 1160 4 1164 9 4 8 135 886
135 911 0 12 -5626 14 -5634 2z"/>
<path d="M11705 24229 c-461 -29 -878 -151 -1275 -374 -529 -297 -902 -715
-1104 -1237 -161 -418 -188 -1034 -60 -1390 116 -322 371 -634 679 -830 240
-153 440 -241 870 -383 798 -264 1061 -388 1296 -613 131 -124 189 -269 189
-471 0 -368 -152 -682 -456 -941 -395 -338 -936 -488 -1456 -404 -497 79 -877
317 -1086 680 -20 35 -40 64 -44 64 -8 0 -884 -676 -892 -688 -6 -10 96 -164
165 -247 268 -325 625 -528 1162 -660 289 -71 586 -101 922 -92 309 8 542 43
822 123 942 269 1625 940 1858 1827 59 224 77 349 82 582 6 230 -2 326 -43
483 -79 309 -340 634 -670 835 -241 147 -492 251 -864 358 -531 153 -892 298
-1120 450 -133 88 -295 251 -343 346 -126 243 -113 597 33 898 204 424 635
698 1190 756 159 17 487 6 610 -19 353 -73 655 -272 806 -529 20 -35 40 -63
45 -63 14 0 889 710 889 722 0 16 -102 141 -189 232 -301 313 -703 497 -1223
561 -259 31 -539 40 -793 24z"/>
<path d="M34406 24229 c-432 -28 -787 -123 -1161 -314 -605 -307 -1017 -749
-1229 -1316 -87 -236 -128 -488 -129 -804 -1 -272 26 -440 104 -633 107 -269
352 -563 610 -735 267 -176 441 -255 899 -407 714 -236 985 -355 1216 -535
205 -160 283 -313 284 -553 0 -250 -83 -506 -229 -699 -87 -116 -260 -278
-386 -362 -535 -358 -1216 -407 -1804 -130 -252 119 -463 310 -583 529 -18 33
-36 60 -41 60 -5 0 -800 -608 -896 -686 -6 -5 80 -137 144 -219 203 -260 481
-455 830 -583 970 -355 2114 -239 2917 298 296 197 531 435 723 730 261 401
405 889 405 1370 0 330 -56 536 -210 768 -260 391 -668 642 -1368 842 -516
147 -892 298 -1112 445 -241 160 -369 317 -415 505 -24 100 -30 296 -11 415
38 249 154 471 346 666 230 233 551 377 932 418 142 16 425 14 543 -4 401 -61
717 -257 899 -558 l33 -56 446 361 c246 198 447 364 447 368 0 20 -116 158
-219 260 -144 143 -265 230 -446 320 -290 145 -591 214 -1045 240 -197 11
-307 11 -494 -1z"/>
<path d="M14705 24018 c-11 -66 -125 -859 -125 -873 0 -13 146 -15 1160 -15
914 0 1160 -3 1160 -12 0 -7 -196 -1419 -435 -3138 -239 -1719 -435 -3134
-435 -3143 0 -16 35 -17 489 -17 l489 0 5 33 c4 17 200 1427 437 3132 236
1705 432 3110 435 3123 l5 22 1163 0 1162 0 64 448 c35 246 66 453 68 460 4 9
-563 12 -2815 12 l-2821 0 -6 -32z"/>
<path d="M22657 23958 c-202 -345 -4131 -7116 -4134 -7126 -4 -10 110 -12 568
-10 l573 3 479 893 480 892 1718 0 1718 0 10 -37 c38 -145 445 -1659 457
-1700 l15 -53 569 0 c450 0 570 3 570 13 0 6 -467 1632 -1038 3612 l-1038
3600 -446 3 -447 2 -54 -92z m293 -1183 c0 -3 193 -735 429 -1627 236 -893
433 -1635 436 -1650 l7 -28 -1362 0 c-937 0 -1361 3 -1358 10 2 6 413 751 913
1655 772 1396 935 1681 935 1640z"/>
<path d="M25811 23608 c-34 -244 -65 -451 -68 -460 -4 -17 56 -18 1162 -18
l1166 0 -6 -32 c-3 -18 -199 -1423 -435 -3123 -236 -1699 -432 -3105 -435
-3122 l-6 -33 491 0 c383 0 492 3 495 13 4 13 875 6266 875 6286 0 8 316 11
1164 11 l1164 0 6 33 c7 39 126 867 126 879 0 4 -1268 8 -2818 8 l-2818 0 -63
-442z"/>
<path d="M16945 15191 c-115 -28 -199 -73 -271 -145 -108 -108 -150 -238 -126
-391 15 -94 47 -160 112 -223 65 -64 153 -109 314 -161 151 -50 212 -78 266
-127 99 -89 68 -243 -62 -311 -48 -25 -63 -28 -158 -28 -95 0 -110 3 -163 28
-32 16 -79 51 -105 77 l-48 49 -109 -102 -108 -102 60 -55 c78 -72 142 -106
259 -136 251 -63 510 -10 655 135 90 90 139 211 139 343 0 238 -125 374 -430
467 -141 44 -263 103 -294 144 -66 87 -30 212 78 270 35 19 57 22 151 22 100
0 115 -2 167 -28 31 -15 69 -42 83 -59 l27 -32 104 110 103 109 -35 31 c-128
115 -401 167 -609 115z"/>
<path d="M18900 15195 c-369 -82 -598 -341 -640 -723 -40 -365 127 -695 424
-841 144 -71 216 -86 411 -85 142 0 183 4 248 22 294 81 507 298 579 587 31
126 31 323 0 447 -72 291 -268 496 -552 579 -98 28 -370 36 -470 14z m332
-256 c183 -39 344 -198 395 -390 22 -85 22 -252 -1 -339 -40 -149 -141 -283
-262 -347 -83 -44 -162 -63 -264 -63 -154 0 -277 49 -379 151 -64 63 -122 169
-146 264 -20 78 -20 253 0 330 51 194 199 346 380 391 64 16 209 17 277 3z"/>
<path d="M24575 15194 c-329 -73 -551 -297 -622 -629 -25 -115 -20 -310 10
-426 75 -289 270 -487 562 -571 69 -20 102 -23 245 -23 187 0 253 14 385 83
70 37 221 171 213 191 -1 5 -53 46 -115 90 l-112 80 -60 -60 c-84 -84 -168
-122 -281 -127 -106 -5 -180 10 -268 53 -117 59 -215 175 -262 308 -31 87 -39
286 -16 375 41 159 140 288 273 355 94 46 165 60 277 55 108 -5 170 -29 259
-102 l58 -47 104 77 c58 42 105 83 105 90 0 16 -87 93 -160 141 -30 20 -93 50
-140 67 -77 27 -99 30 -235 33 -109 2 -169 -2 -220 -13z"/>
<path d="M26570 15194 c-329 -70 -556 -299 -624 -627 -21 -99 -21 -294 0 -395
64 -317 300 -548 629 -617 93 -20 286 -19 382 1 420 86 683 433 660 869 -22
413 -272 706 -661 774 -83 15 -308 12 -386 -5z m349 -259 c178 -47 315 -183
374 -370 28 -89 30 -258 4 -353 -54 -202 -195 -348 -382 -397 -76 -19 -214
-19 -290 0 -88 23 -152 62 -231 140 -114 112 -164 242 -164 425 0 118 20 202
68 294 66 125 188 224 323 260 70 19 229 20 298 1z"/>
<path d="M33950 15194 c-407 -87 -656 -424 -637 -864 6 -153 24 -225 89 -360
44 -92 61 -115 142 -196 81 -81 104 -98 196 -142 162 -77 211 -87 435 -87 241
1 376 28 578 118 l57 26 0 410 0 411 -305 0 -305 0 0 -130 0 -130 165 0 165 0
0 -186 0 -185 -54 -24 c-118 -52 -346 -72 -465 -40 -175 46 -315 184 -372 365
-28 91 -35 245 -16 337 44 204 195 369 382 417 83 22 225 20 318 -3 87 -23
135 -46 202 -96 l48 -37 103 103 c57 57 103 108 101 114 -2 5 -35 31 -73 57
-136 93 -319 139 -553 137 -75 0 -165 -7 -201 -15z"/>
<path d="M7320 14375 l0 -796 383 3 382 4 88 27 c303 94 517 309 573 577 17
85 20 278 4 360 -49 257 -214 465 -440 554 -151 59 -153 60 -587 64 l-403 3 0
-796z m803 502 c233 -81 336 -235 337 -502 0 -167 -40 -274 -137 -371 -116
-115 -281 -164 -550 -164 l-163 0 0 536 0 536 218 -4 c204 -4 222 -6 295 -31z"/>
<path d="M9652 14383 c-188 -434 -342 -791 -342 -795 0 -5 71 -8 158 -8 l157
0 70 180 70 180 345 0 346 0 73 -180 73 -180 165 0 c90 0 162 3 160 8 -2 4
-156 361 -342 795 l-339 787 -126 0 -125 0 -343 -787z m582 125 c64 -169 116
-310 116 -313 0 -3 -108 -5 -240 -5 -132 0 -240 2 -240 5 0 4 114 301 231 604
5 13 11 22 13 20 2 -2 56 -142 120 -311z"/>
<path d="M11266 15083 c19 -49 159 -406 311 -795 l278 -708 126 0 125 0 156
388 c86 213 231 570 322 795 l164 407 -156 -2 -156 -3 -220 -592 c-121 -326
-222 -590 -224 -588 -3 2 -100 269 -217 592 l-212 588 -166 3 -166 2 35 -87z"/>
<path d="M13360 14375 l0 -795 145 0 145 0 0 795 0 795 -145 0 -145 0 0 -795z"/>
<path d="M14440 14374 l0 -795 383 3 382 4 88 27 c162 50 284 124 387 234 79
84 132 172 167 278 25 74 27 93 27 250 1 194 -9 246 -74 380 -104 215 -304
358 -564 404 -35 7 -215 11 -428 11 l-368 0 0 -796z m726 521 c194 -37 326
-144 385 -310 26 -74 36 -243 20 -330 -17 -95 -72 -194 -141 -258 -122 -114
-270 -157 -537 -157 l-163 0 0 535 0 535 179 0 c117 0 206 -5 257 -15z"/>
<path d="M20660 14375 l0 -795 145 0 145 0 2 607 3 607 390 -606 390 -607 183
-1 182 0 0 795 0 795 -145 0 -145 0 -2 -583 -3 -583 -380 583 -380 583 -192 0
-193 0 0 -795z"/>
<path d="M28330 14375 l0 -795 485 0 485 0 0 130 0 130 -340 0 -340 0 0 665 0
665 -145 0 -145 0 0 -795z"/>
<path d="M29950 14375 l0 -795 485 0 486 0 -3 128 -3 127 -337 3 -338 2 0 665
0 665 -145 0 -145 0 0 -795z"/>
<path d="M31570 14375 l0 -795 550 0 550 0 0 130 0 130 -405 0 -405 0 0 210 0
210 363 2 362 3 0 130 0 130 -362 3 -363 2 0 190 0 190 383 2 382 3 3 128 3
127 -531 0 -530 0 0 -795z"/>
<path d="M35590 14375 l0 -795 550 0 550 0 0 130 0 130 -405 0 -405 0 0 210 0
210 365 0 365 0 0 135 0 135 -365 0 -365 0 0 190 0 190 385 0 385 0 0 130 0
130 -530 0 -530 0 0 -795z"/>
</g>
</svg>
